<svg width="10.000000" height="17.000000" viewBox="0 0 10 17" fill="none" xmlns="http://www.w3.org/2000/svg" xmlns:xlink="http://www.w3.org/1999/xlink">
	<desc>
			Created with Pixso.
	</desc>
	<defs/>
	<path id="Path" d="M8.78 0.21L6.78 0.2C4.53 0.2 3.08 1.7 3.08 4L3.08 5.76L1.07 5.76C0.9 5.76 0.76 5.9 0.76 6.07L0.76 8.61C0.76 8.78 0.9 8.92 1.07 8.92L3.08 8.92L3.08 15.33C3.08 15.51 3.22 15.65 3.4 15.65L6.02 15.65C6.19 15.65 6.33 15.5 6.33 15.33L6.33 8.92L8.68 8.92C8.86 8.92 9 8.78 9 8.61L9 6.07C9 5.99 8.97 5.91 8.91 5.85C8.85 5.79 8.77 5.76 8.68 5.76L6.33 5.76L6.33 4.27C6.33 3.56 6.5 3.19 7.43 3.19L8.78 3.19C8.95 3.19 9.09 3.05 9.09 2.88L9.09 0.52C9.09 0.35 8.95 0.21 8.78 0.21Z" fill="#FFFFFF" fill-opacity="1.000000" fill-rule="nonzero"/>
</svg>
