<svg width="21.000000" height="14.000000" viewBox="0 0 21 14" fill="none" xmlns="http://www.w3.org/2000/svg" xmlns:xlink="http://www.w3.org/1999/xlink">
	<desc>
			Created with Pixso.
	</desc>
	<defs/>
	<path id="Path" d="M0.22 6.96C0.1 3.76 2.85 0.8 5.99 0.76C7.59 0.62 9.15 1.25 10.37 2.29C9.87 2.85 9.36 3.4 8.82 3.91C7.75 3.25 6.47 2.75 5.22 3.2C3.21 3.78 1.99 6.2 2.74 8.21C3.35 10.3 5.85 11.45 7.81 10.57C8.83 10.2 9.5 9.25 9.79 8.22C8.63 8.2 7.46 8.21 6.3 8.18C6.3 7.48 6.29 6.77 6.3 6.07C8.24 6.06 10.18 6.06 12.12 6.08C12.24 7.81 11.99 9.65 10.89 11.04C9.38 13.02 6.59 13.6 4.32 12.83C1.92 12.02 0.17 9.55 0.22 6.96Z" fill="#FFFFFF" fill-opacity="1.000000" fill-rule="nonzero"/>
	<path id="Path" d="M15.9 4.29C16.48 4.29 17.05 4.29 17.63 4.29C17.63 4.88 17.64 5.47 17.64 6.06C18.22 6.07 18.8 6.07 19.38 6.07C19.38 6.66 19.38 7.25 19.38 7.84C18.8 7.84 18.22 7.85 17.64 7.85C17.64 8.44 17.63 9.03 17.63 9.62C17.05 9.62 16.47 9.62 15.9 9.62C15.89 9.03 15.89 8.44 15.89 7.85C15.31 7.85 14.73 7.84 14.15 7.84C14.15 7.25 14.15 6.66 14.15 6.07C14.73 6.07 15.31 6.07 15.89 6.06C15.89 5.47 15.9 4.88 15.9 4.29Z" fill="#FFFFFF" fill-opacity="1.000000" fill-rule="nonzero"/>
</svg>
