<svg width="18.000000" height="18.000000" viewBox="0 0 18 18" fill="none" xmlns="http://www.w3.org/2000/svg" xmlns:xlink="http://www.w3.org/1999/xlink">
	<desc>
			Created with Pixso.
	</desc>
	<defs/>
	<path id="Shape" d="M5.8125 0.5L12.1875 0.5C15.1211 0.5 17.5 2.87891 17.5 5.8125L17.5 12.1875C17.5 15.1211 15.1211 17.5 12.1875 17.5L5.8125 17.5C2.87894 17.5 0.5 15.1211 0.5 12.1875L0.5 5.8125C0.5 2.87891 2.87894 0.5 5.8125 0.5ZM12.1875 15.9062C14.2381 15.9062 15.9062 14.238 15.9062 12.1875L15.9062 5.8125C15.9062 3.76196 14.2381 2.09375 12.1875 2.09375L5.8125 2.09375C3.76187 2.09375 2.09375 3.76196 2.09375 5.8125L2.09375 12.1875C2.09375 14.238 3.76187 15.9062 5.8125 15.9062L12.1875 15.9062Z" clip-rule="evenodd" fill="#FFFFFF" fill-opacity="1.000000" fill-rule="evenodd"/>
	<path id="Shape" d="M4.75 9C4.75 6.65283 6.65292 4.75 9 4.75C11.3471 4.75 13.25 6.65283 13.25 9C13.25 11.3472 11.3471 13.25 9 13.25C6.65292 13.25 4.75 11.3472 4.75 9ZM6.34375 9C6.34375 10.4641 7.53589 11.6562 9 11.6562C10.4641 11.6562 11.6562 10.4641 11.6562 9C11.6562 7.53491 10.4641 6.34375 9 6.34375C7.53589 6.34375 6.34375 7.53491 6.34375 9Z" clip-rule="evenodd" fill="#FFFFFF" fill-opacity="1.000000" fill-rule="evenodd"/>
	<path id="Oval" d="M13.6 5.45C14.19 5.45 14.66 4.98 14.66 4.39C14.66 3.8 14.19 3.33 13.6 3.33C13.01 3.33 12.54 3.8 12.54 4.39C12.54 4.98 13.01 5.45 13.6 5.45Z" fill="#FFFFFF" fill-opacity="1.000000" fill-rule="nonzero"/>
</svg>
