<svg width="14.000000" height="17.000000" viewBox="0 0 14 17" fill="none" xmlns="http://www.w3.org/2000/svg" xmlns:xlink="http://www.w3.org/1999/xlink">
	<desc>
			Created with Pixso.
	</desc>
	<defs/>
	<path id="XMLID_799_" d="M10.8 1.8C9.75 0.77 8.29 0.2 6.7 0.2C4.27 0.2 2.77 1.22 1.94 2.07C0.92 3.11 0.34 4.5 0.34 5.88C0.34 7.61 1.05 8.94 2.24 9.43C2.32 9.47 2.4 9.48 2.48 9.48C2.73 9.48 2.93 9.31 3 9.05C3.04 8.89 3.14 8.51 3.18 8.35C3.26 8.02 3.19 7.87 3 7.64C2.66 7.23 2.5 6.73 2.5 6.1C2.5 4.2 3.89 2.19 6.46 2.19C8.51 2.19 9.78 3.37 9.78 5.27C9.78 6.46 9.52 7.57 9.06 8.39C8.74 8.96 8.18 9.63 7.31 9.63C6.94 9.63 6.6 9.48 6.39 9.21C6.19 8.95 6.12 8.62 6.2 8.27C6.29 7.88 6.42 7.47 6.54 7.07C6.76 6.35 6.96 5.67 6.96 5.13C6.96 4.2 6.4 3.57 5.56 3.57C4.5 3.57 3.66 4.67 3.66 6.07C3.66 6.76 3.84 7.27 3.93 7.47C3.79 8.05 3 11.48 2.84 12.12C2.76 12.5 2.23 15.48 3.1 15.72C4.08 15.99 4.96 13.09 5.05 12.76C5.12 12.49 5.37 11.48 5.52 10.86C6 11.32 6.76 11.64 7.5 11.64C8.9 11.64 10.15 11 11.03 9.84C11.89 8.72 12.36 7.15 12.36 5.43C12.36 4.09 11.8 2.76 10.8 1.8Z" fill="#FFFFFF" fill-opacity="1.000000" fill-rule="nonzero"/>
</svg>
