<svg width="16.000000" height="14.000000" viewBox="0 0 16 14" fill="none" xmlns="http://www.w3.org/2000/svg" xmlns:xlink="http://www.w3.org/1999/xlink">
	<desc>
			Created with Pixso.
	</desc>
	<defs/>
	<path id="Path Copy" d="M15.79 2.13C15.21 2.39 14.6 2.56 13.95 2.64C14.61 2.24 15.12 1.61 15.36 0.86C14.74 1.22 14.05 1.49 13.33 1.64C12.74 1.01 11.91 0.62 10.99 0.62C9.23 0.62 7.79 2.06 7.79 3.84C7.79 4.09 7.82 4.34 7.88 4.57C5.22 4.44 2.86 3.16 1.29 1.21C1.01 1.68 0.85 2.24 0.85 2.83C0.85 3.94 1.42 4.93 2.28 5.51C1.75 5.49 1.26 5.35 0.83 5.1C0.83 5.12 0.83 5.13 0.83 5.14C0.83 6.7 1.93 8 3.39 8.3C3.13 8.37 2.84 8.41 2.55 8.41C2.35 8.41 2.15 8.39 1.95 8.36C2.36 9.63 3.54 10.56 4.94 10.59C3.84 11.45 2.46 11.97 0.97 11.97C0.71 11.97 0.45 11.95 0.2 11.92C1.62 12.84 3.3 13.37 5.1 13.37C10.98 13.37 14.2 8.47 14.2 4.21C14.2 4.07 14.2 3.93 14.19 3.8C14.82 3.34 15.36 2.77 15.79 2.13Z" fill="#FFFFFF" fill-opacity="1.000000" fill-rule="nonzero"/>
</svg>
